<?xml version="1.0" standalone="no"?>
<!DOCTYPE svg PUBLIC "-//W3C//DTD SVG 20010904//EN"
 "http://www.w3.org/TR/2001/REC-SVG-20010904/DTD/svg10.dtd">
<svg version="1.0" xmlns="http://www.w3.org/2000/svg"
 width="102.000000pt" height="134.000000pt" viewBox="0 0 102.000000 134.000000"
 preserveAspectRatio="xMidYMid meet">

<g transform="translate(0.000000,134.000000) scale(0.100000,-0.100000)"
fill="#000000" stroke="none">
<path d="M829 1235 c-3 -2 -111 -5 -242 -5 -130 -1 -253 -6 -274 -12 -36 -10
-105 -68 -114 -97 -4 -11 -13 -9 -47 8 -24 12 -46 19 -51 17 -14 -9 -30 -83
-66 -307 -21 -132 -33 -230 -29 -250 9 -46 37 -99 66 -125 53 -48 86 -57 241
-62 130 -4 147 -7 143 -21 -3 -9 -8 -38 -11 -66 -4 -27 -9 -58 -12 -67 -4 -16
3 -18 57 -18 115 0 163 39 184 147 12 62 18 75 54 108 46 41 79 89 92 134 8
29 7 30 -39 41 l-47 11 4 57 c3 51 1 59 -22 81 -20 19 -41 26 -90 30 -61 6
-66 8 -105 53 -23 25 -41 49 -41 52 0 3 74 6 164 6 160 0 164 0 190 -25 23
-22 36 -25 97 -25 38 0 69 3 69 8 0 4 4 33 10 65 16 103 -20 147 -122 147
l-43 0 27 23 c23 19 48 56 48 71 0 3 -17 10 -37 15 -43 12 -48 13 -54 6z
m-505 -197 c-6 -65 -4 -76 15 -100 17 -21 34 -29 72 -34 l50 -7 -6 -52 c-7
-49 -5 -54 26 -89 l33 -38 -20 -96 -20 -97 -141 0 -142 0 -30 29 c-16 16 -33
42 -36 57 -5 24 61 476 71 488 2 2 24 -2 50 -8 40 -10 50 -10 63 3 8 9 17 16
18 16 2 0 0 -33 -3 -72z"/>
</g>
</svg>
